<svg version="1.2" xmlns="http://www.w3.org/2000/svg" viewBox="0 0 104 32" width="104" height="32"><style></style><path fill-rule="evenodd" d="m3.4 26v-17.5h4.8q5.1 0 7.5 2.1 2.4 2.1 2.4 6.6 0 4.6-2.4 6.7-2.4 2.1-7.5 2.1zm5.2-15.6h-2.8v13.7h2.8q3.7 0 5.3-1.7 1.7-1.6 1.7-5.2 0-3.5-1.7-5.1-1.6-1.7-5.3-1.7zm11.8 4.2v-1.7h10.2v1.9l-8.1 9.5h8.1v1.7h-10.5v-2l8.1-9.4zm5.9-3.4h-1.8l-2.8-4.4h1.6l2.1 2.9 2.1-2.9h1.6zm7.9 9.6v-7.9h2.1v7.8q0 1.9 0.8 2.8 0.7 1 2.2 1 1.7 0 2.7-1.2 1-1.1 1-3v-7.4h2.2v13.1h-2.2v-2q-0.8 1.2-1.8 1.8-1 0.5-2.4 0.5-2.3 0-3.4-1.4-1.2-1.4-1.2-4.1zm23.8-5.9v-7.1h2.2v18.2h-2.2v-2q-0.6 1.2-1.7 1.8-1 0.5-2.5 0.5-2.3 0-3.8-1.9-1.5-1.9-1.5-5 0-3.1 1.5-4.9 1.5-1.9 3.8-1.9 1.5 0 2.5 0.5 1.1 0.6 1.7 1.8zm-7.3 4.5q0 2.4 1 3.8 1 1.3 2.7 1.3 1.7 0 2.7-1.3 0.9-1.4 0.9-3.8 0-2.3-0.9-3.7-1-1.3-2.7-1.3-1.7 0-2.7 1.3-1 1.4-1 3.7zm13.8-4.8v-1.7h10.2v1.9l-8.1 9.5h8.1v1.7h-10.5v-2l8.1-9.4zm5.9-3.4h-1.8l-2.9-4.4h1.7l2.1 2.9 2.1-2.9h1.6zm17.4 7.3v7.5h-2.2v-2q-0.7 1.2-1.8 1.8-1.1 0.5-2.7 0.5-2 0-3.2-1.1-1.2-1.1-1.2-3 0-2.2 1.5-3.4 1.4-1.1 4.4-1.1h3v-0.2q0-1.5-1-2.3-0.9-0.8-2.7-0.8-1.1 0-2.2 0.2-1.1 0.3-2.1 0.9v-2q1.2-0.5 2.3-0.7 1.2-0.3 2.2-0.3 2.9 0 4.3 1.5 1.4 1.5 1.4 4.5zm-2.2 0.9h-2.1q-2.6 0-3.7 0.6-1 0.6-1 2 0 1.2 0.8 1.9 0.7 0.6 2 0.6 1.8 0 2.9-1.2 1.1-1.3 1.1-3.4zm17.8-1.4v8h-2.1v-7.9q0-1.8-0.8-2.8-0.7-0.9-2.2-0.9-1.7 0-2.7 1.1-1 1.1-1 3.1v7.4h-2.2v-13.2h2.2v2.1q0.8-1.2 1.8-1.8 1.1-0.6 2.4-0.6 2.3 0 3.5 1.4 1.1 1.4 1.1 4.1z"/></svg>